<svg width="16" height="16" viewBox="0 0 16 16" fill="none" xmlns="http://www.w3.org/2000/svg">
<g clip-path="url(#clip0)">
<path d="M15.9852 14.9018L14.4626 9.58848C14.4397 9.50902 14.3916 9.43916 14.3255 9.38943C14.2594 9.3397 14.179 9.3128 14.0963 9.3128H13.4497V12.0352C13.4497 12.6649 12.9372 13.1776 12.3073 13.1776H3.70029C3.07009 13.1776 2.55792 12.6649 2.55792 12.0352C2.55792 12.0352 2.55235 12.043 2.55135 12.0446C2.55135 12.0414 2.55026 12.0385 2.55026 12.0352V9.3128H1.90378C1.82108 9.3128 1.74062 9.3397 1.67455 9.38943C1.60847 9.43917 1.56036 9.50903 1.53746 9.5885L0.0148704 14.9018C-0.00147401 14.9584 -0.00439178 15.0181 0.00634855 15.0761C0.0170889 15.1341 0.0411918 15.1888 0.0767454 15.2358C0.112162 15.2829 0.158039 15.3211 0.210754 15.3474C0.26347 15.3737 0.32158 15.3874 0.380495 15.3874C0.381902 15.3875 15.6195 15.3874 15.6195 15.3874C15.6785 15.3874 15.7366 15.3737 15.7893 15.3474C15.842 15.3211 15.8879 15.2829 15.9234 15.2358C15.9589 15.1887 15.983 15.1341 15.9937 15.0761C16.0044 15.0181 16.0015 14.9584 15.9852 14.9018H15.9852ZM2.6569 6.52791L7.99654 1.93686L13.3361 6.52789C13.4393 6.61691 13.571 6.66588 13.7073 6.66587C13.8684 6.66587 14.0281 6.59852 14.141 6.46727C14.3465 6.22789 14.3202 5.86723 14.0802 5.66187L8.36878 0.75064C8.15521 0.566437 7.83784 0.566437 7.62396 0.75064L1.91214 5.66194C1.67287 5.8673 1.64546 6.22795 1.85104 6.46733C2.0576 6.70655 2.41875 6.73383 2.65689 6.52791H2.6569Z" fill="#00C0FF"/>
<path d="M7.74765 2.6646L3.44377 6.37803C3.40254 6.41398 3.36946 6.45832 3.34676 6.50809C3.32405 6.55786 3.31225 6.61191 3.31213 6.66661V12.0352C3.31213 12.0852 3.32196 12.1347 3.34109 12.1809C3.36021 12.227 3.38824 12.269 3.42358 12.3043C3.45893 12.3397 3.50088 12.3677 3.54706 12.3868C3.59324 12.406 3.64273 12.4158 3.69271 12.4158H12.2997C12.3497 12.4159 12.3993 12.4061 12.4456 12.387C12.4918 12.3679 12.5338 12.3399 12.5692 12.3046C12.6047 12.2692 12.6327 12.2272 12.6519 12.181C12.6711 12.1348 12.681 12.0853 12.681 12.0352V6.66661C12.6809 6.6118 12.669 6.55765 12.6461 6.50786C12.6232 6.45806 12.5899 6.41378 12.5483 6.37805L8.24515 2.6646C8.17596 2.60503 8.0877 2.57227 7.9964 2.57227C7.9051 2.57227 7.81684 2.60503 7.74765 2.6646ZM7.61534 10.7319C7.61534 10.8328 7.57526 10.9297 7.50389 11.0011C7.43253 11.0725 7.33573 11.1127 7.23476 11.1128H5.90217C5.85211 11.1128 5.80254 11.103 5.75629 11.0839C5.71003 11.0648 5.668 11.0367 5.63259 11.0013C5.59718 10.966 5.56908 10.924 5.54991 10.8777C5.53074 10.8315 5.52087 10.7819 5.52085 10.7319V9.39788C5.52088 9.34783 5.53076 9.29829 5.54994 9.25207C5.56911 9.20585 5.59721 9.16386 5.63262 9.1285C5.66803 9.09314 5.71006 9.06511 5.75631 9.046C5.80256 9.0269 5.85212 9.01709 5.90217 9.01714H7.23476C7.33571 9.01719 7.43251 9.05732 7.50387 9.12872C7.57524 9.20011 7.61533 9.29693 7.61534 9.39788V10.7319ZM7.61534 7.87469C7.61537 7.97566 7.57529 8.07252 7.50392 8.14395C7.43255 8.21538 7.33573 8.25554 7.23476 8.2556H5.90217C5.85211 8.25564 5.80254 8.24582 5.75628 8.2267C5.71003 8.20758 5.66799 8.17953 5.63258 8.14416C5.59717 8.10878 5.56907 8.06678 5.5499 8.02054C5.53073 7.9743 5.52086 7.92474 5.52085 7.87469V6.54085C5.52086 6.49079 5.53073 6.44123 5.5499 6.39499C5.56907 6.34875 5.59716 6.30674 5.63257 6.27137C5.66799 6.23599 5.71002 6.20794 5.75628 6.18882C5.80254 6.1697 5.85211 6.15988 5.90217 6.15992H7.23476C7.33574 6.15998 7.43256 6.20014 7.50393 6.27158C7.5753 6.34301 7.61537 6.43987 7.61534 6.54085V7.87467V7.87469ZM8.37715 6.54086C8.37711 6.4908 8.38695 6.44122 8.4061 6.39497C8.42525 6.34871 8.45333 6.30669 8.48875 6.27131C8.52416 6.23592 8.56621 6.20787 8.61248 6.18876C8.65875 6.16965 8.70834 6.15986 8.7584 6.15994H10.0907C10.1917 6.16001 10.2885 6.20018 10.3599 6.27162C10.4312 6.34305 10.4713 6.43989 10.4712 6.54086V7.87469C10.4713 7.97565 10.4312 8.07249 10.3598 8.14392C10.2885 8.21535 10.1917 8.25552 10.0907 8.2556H8.75838C8.70832 8.25568 8.65874 8.24588 8.61247 8.22677C8.5662 8.20767 8.52415 8.17962 8.48874 8.14423C8.45332 8.10885 8.42524 8.06683 8.40609 8.02058C8.38694 7.97433 8.3771 7.92475 8.37713 7.87469V6.54085L8.37715 6.54086ZM8.37715 9.39783C8.37713 9.34778 8.38699 9.29822 8.40615 9.25199C8.42531 9.20575 8.4534 9.16375 8.48881 9.12838C8.52422 9.09302 8.56626 9.06498 8.61252 9.04589C8.65878 9.02679 8.70835 9.017 8.7584 9.01708H10.0907C10.1917 9.01714 10.2885 9.05728 10.3598 9.12868C10.4312 9.20008 10.4712 9.29689 10.4712 9.39783V10.7318C10.4712 10.9421 10.3007 11.1127 10.0907 11.1127H8.75838C8.70833 11.1128 8.65876 11.103 8.6125 11.0839C8.56624 11.0648 8.5242 11.0367 8.48879 11.0013C8.45338 10.9659 8.42529 10.9239 8.40613 10.8777C8.38697 10.8314 8.37712 10.7819 8.37713 10.7318V9.39783H8.37715Z" fill="#00C0FF"/>
</g>
<defs>
<clipPath id="clip0">
<rect width="16" height="16" fill="white"/>
</clipPath>
</defs>
</svg>
