<svg width="16" height="16" viewBox="0 0 16 16" fill="none" xmlns="http://www.w3.org/2000/svg">
<path d="M12.0714 5.6H9.86208C9.70295 5.6 9.55034 5.53679 9.43782 5.42426C9.32529 5.31174 9.26208 5.15913 9.26208 5C9.26208 4.84087 9.32529 4.68826 9.43782 4.57574C9.55034 4.46321 9.70295 4.4 9.86208 4.4H12.0714C12.2305 4.4 12.3832 4.46321 12.4957 4.57574C12.6082 4.68826 12.6714 4.84087 12.6714 5C12.6714 5.15913 12.6082 5.31174 12.4957 5.42426C12.3832 5.53679 12.2305 5.6 12.0714 5.6ZM12.0714 8.6H9.86208C9.70295 8.6 9.55034 8.53679 9.43782 8.42426C9.32529 8.31174 9.26208 8.15913 9.26208 8C9.26208 7.84087 9.32529 7.68826 9.43782 7.57574C9.55034 7.46321 9.70295 7.4 9.86208 7.4H12.0714C12.2305 7.4 12.3832 7.46321 12.4957 7.57574C12.6082 7.68826 12.6714 7.84087 12.6714 8C12.6714 8.15913 12.6082 8.31174 12.4957 8.42426C12.3832 8.53679 12.2305 8.6 12.0714 8.6ZM12.0714 11.6H9.86208C9.78329 11.6 9.70527 11.5845 9.63247 11.5543C9.55968 11.5242 9.49353 11.48 9.43782 11.4243C9.3821 11.3685 9.33791 11.3024 9.30775 11.2296C9.2776 11.1568 9.26208 11.0788 9.26208 11C9.26208 10.9212 9.2776 10.8432 9.30775 10.7704C9.33791 10.6976 9.3821 10.6315 9.43782 10.5757C9.49353 10.52 9.55968 10.4758 9.63247 10.4457C9.70527 10.4155 9.78329 10.4 9.86208 10.4H12.0714C12.2305 10.4 12.3832 10.4632 12.4957 10.5757C12.6082 10.6883 12.6714 10.8409 12.6714 11C12.6714 11.1591 12.6082 11.3117 12.4957 11.4243C12.3832 11.5368 12.2305 11.6 12.0714 11.6ZM6.27141 11.6H4.06141C3.90228 11.6 3.74967 11.5368 3.63715 11.4243C3.52463 11.3117 3.46141 11.1591 3.46141 11C3.46141 10.8409 3.52463 10.6883 3.63715 10.5757C3.74967 10.4632 3.90228 10.4 4.06141 10.4H6.27141C6.43054 10.4 6.58316 10.4632 6.69568 10.5757C6.8082 10.6883 6.87141 10.8409 6.87141 11C6.87141 11.1591 6.8082 11.3117 6.69568 11.4243C6.58316 11.5368 6.43054 11.6 6.27141 11.6ZM13.6667 1H8.26675C8.05457 1 7.85109 1.08429 7.70106 1.23431C7.55103 1.38434 7.46675 1.58783 7.46675 1.8V7.4H2.46675C2.25457 7.4 2.05109 7.48429 1.90106 7.63432C1.75103 7.78434 1.66675 7.98783 1.66675 8.2V14.2C1.66675 14.4122 1.75103 14.6157 1.90106 14.7657C2.05109 14.9157 2.25457 15 2.46675 15H13.6667C13.8789 15 14.0824 14.9157 14.2324 14.7657C14.3825 14.6157 14.4667 14.4122 14.4667 14.2V1.8C14.4667 1.58783 14.3825 1.38434 14.2324 1.23431C14.0824 1.08429 13.8789 1 13.6667 1Z" fill="#00C0FF"/>
</svg>
