<svg width="16" height="16" viewBox="0 0 16 16" fill="none" xmlns="http://www.w3.org/2000/svg">
<path d="M15.106 14.2919V8.65185C15.106 8.26948 15.01 8.17388 14.7219 7.9349C14.0018 7.40914 12.7057 6.5488 11.9856 6.07083C11.6495 5.83185 11.3135 5.78405 10.8814 6.07083C10.7854 6.11863 10.6894 6.21422 10.5934 6.26202C9.82528 6.78778 9.05717 7.50473 8.43309 7.9827C8.14505 8.17388 7.95302 8.31727 7.95302 8.65185V14.5786C7.95302 15.0088 8.09704 15.2 8.48109 15.2H14.962C15.394 15.1522 15.106 14.722 15.106 14.2919ZM11.8416 11.9976L9.87328 13.1447C9.72926 13.2403 9.53724 13.1925 9.44122 13.0491L9.34521 12.858C9.2492 12.7146 9.2972 12.5234 9.44122 12.4278L11.4095 11.2807C11.5535 11.1851 11.7455 11.2329 11.8416 11.3763L11.9376 11.5674C11.9856 11.7108 11.9856 11.902 11.8416 11.9976ZM11.8416 9.3688L9.87328 10.5159C9.72926 10.6115 9.53724 10.5637 9.44122 10.4203L9.34521 10.2291C9.2492 10.0857 9.2972 9.89456 9.44122 9.79897L11.4095 8.65185C11.5535 8.55626 11.7455 8.60405 11.8416 8.74744L11.9376 8.93863C11.9856 9.08202 11.9856 9.27321 11.8416 9.3688ZM10.5454 4.78032V4.25456C10.5454 3.77659 10.1133 3.58541 9.72926 3.34643C8.57711 2.58168 7.47296 1.81693 6.3208 1.05219C5.88874 0.765408 5.50469 0.669815 4.92861 1.05219C4.8326 1.14778 4.73658 1.19558 4.59256 1.29117C3.68044 1.91253 2.33626 2.82066 1.56815 3.34643C1.1841 3.58541 0.800049 3.77659 0.800049 4.30236V14.2919C0.800049 14.7698 1.1841 15.1522 1.66417 15.1522H5.69671C6.12877 15.1522 6.75286 14.8654 6.70485 14.1963V8.26948C6.70485 7.79151 6.75286 7.60032 7.13691 7.36134C7.761 6.93117 9.10518 5.97524 9.92129 5.40168C10.3053 5.1627 10.5454 5.1149 10.5454 4.78032ZM5.21665 9.94236L2.86433 11.4719C2.72031 11.5674 2.52828 11.5196 2.43227 11.3763L2.33626 11.1851C2.24024 11.0895 2.28825 10.9461 2.38426 10.8505L4.73658 9.321C4.8806 9.22541 5.07263 9.27321 5.16864 9.4166L5.26466 9.60778C5.40868 9.70337 5.36067 9.84677 5.21665 9.94236ZM5.21665 7.31354L2.86433 8.84304C2.72031 8.98643 2.52828 8.93863 2.43227 8.79524L2.33626 8.60405C2.24024 8.46066 2.28825 8.26948 2.43227 8.17388L4.78459 6.64439C4.92861 6.5488 5.12064 6.5966 5.21665 6.73998L5.31266 6.93117C5.40868 7.07456 5.36067 7.26575 5.21665 7.31354ZM5.21665 4.68473L2.86433 6.21422C2.72031 6.30982 2.52828 6.26202 2.43227 6.11863L2.33626 5.92744C2.24024 5.87965 2.28825 5.68846 2.38426 5.59287L4.73658 4.06337C4.8806 3.96778 5.07263 4.01558 5.16864 4.15897L5.26466 4.35015C5.40868 4.44575 5.36067 4.63693 5.21665 4.68473Z" fill="#00C0FF"/>
</svg>
