<svg width="16" height="16" viewBox="0 0 16 16" fill="none" xmlns="http://www.w3.org/2000/svg">
<path fill-rule="evenodd" clip-rule="evenodd" d="M0.887749 14.7285H7.88042C8.12169 14.7285 8.30675 14.5343 8.3113 14.3057C8.48892 14.222 8.66014 14.1189 8.82198 13.9965C10.211 13.1495 11.0648 13.8745 11.2003 13.9965C11.8169 14.4437 12.5555 14.6944 13.3144 14.7147C14.0191 14.7351 14.6966 14.4302 15.1574 13.8745L15.1642 13.8678C15.3403 13.6645 15.32 13.346 15.11 13.1631C14.8999 12.9734 14.5747 13.0005 14.3917 13.2105C13.4296 14.3353 11.8982 13.2105 11.8982 13.2105C10.8615 12.3635 9.38437 12.3364 8.31379 13.1427C8.22598 13.1985 8.14033 13.2479 8.05689 13.2913L7.53731 11.3532C7.99336 11.2815 8.43563 11.0992 8.82198 10.8051C10.211 9.96488 11.0648 10.6831 11.2003 10.8051C11.8101 11.2658 12.5487 11.5301 13.3144 11.5572C13.9919 11.564 14.6357 11.2658 15.0761 10.7441L15.0829 10.7373C15.259 10.534 15.2387 10.2156 15.0287 10.0326C14.8322 9.89034 14.5679 9.9039 14.3917 10.0665C13.4296 11.1574 11.8982 10.0326 11.8982 10.0326C10.8615 9.19243 9.3776 9.1721 8.31379 9.97843C7.92381 10.2224 7.57631 10.3395 7.27639 10.38L6.6958 8.21438C7.43217 8.31287 8.19964 8.12533 8.82198 7.64754C10.211 6.80733 11.0648 7.52557 11.2003 7.64754C11.8101 8.1083 12.5487 8.37255 13.3144 8.39966C14.0191 8.42676 14.6966 8.12185 15.1574 7.58656L15.1642 7.57978C15.3403 7.3765 15.32 7.05804 15.11 6.87509C14.8999 6.68537 14.5747 6.71247 14.3917 6.92252C13.4296 8.01343 11.8982 6.88864 11.8982 6.88864C10.8615 6.04844 9.3776 6.02811 8.31379 6.83444C7.45337 7.37273 6.79976 7.29591 6.40768 7.13968L4.9126 1.56304C4.86517 1.36654 4.689 1.22425 4.48572 1.22425H0.887749C0.839643 1.22405 0.791973 1.23337 0.747489 1.25169C0.703006 1.27001 0.66259 1.29695 0.628573 1.33097C0.594556 1.36498 0.567612 1.4054 0.549296 1.44988C0.530979 1.49437 0.521652 1.54204 0.521854 1.59014V14.3626C0.521652 14.4107 0.530979 14.4584 0.549296 14.5029C0.567612 14.5474 0.594556 14.5878 0.628573 14.6218C0.66259 14.6558 0.703006 14.6827 0.747489 14.7011C0.791973 14.7194 0.839643 14.7287 0.887749 14.7285Z" fill="#00C0FF"/>
</svg>
