<svg width="16" height="16" viewBox="0 0 16 16" fill="none" xmlns="http://www.w3.org/2000/svg">
<path fill-rule="evenodd" clip-rule="evenodd" d="M2.89059 15.0219H13.0187H14.1546H14.5625C15.1968 15.0219 15.7109 14.5063 15.7109 13.8735C15.7109 13.3086 15.3001 12.8371 14.7618 12.7424C14.7296 12.7311 14.6952 12.725 14.6594 12.725H14.5625H13.5106C13.5108 12.7204 13.5109 12.7157 13.5109 12.711V11.1062H15.1498C15.2561 11.1062 15.3545 11.0531 15.4107 10.9625C15.4686 10.8734 15.4764 10.7609 15.4326 10.6641L14.8401 9.36728H15.1502C15.2564 9.36728 15.3564 9.31259 15.4142 9.22197C15.4705 9.13134 15.4783 9.01884 15.433 8.92197L14.8404 7.66252H15.1498C15.2607 7.66252 15.3638 7.60315 15.4201 7.50784C15.4763 7.41096 15.4763 7.29221 15.4217 7.19534L13.4701 3.77346C13.4138 3.67659 13.3107 3.61565 13.1982 3.61565C13.0857 3.61565 12.9826 3.67659 12.9263 3.77346L10.9748 7.19377C10.9201 7.29065 10.9201 7.4094 10.9763 7.50627C11.0326 7.60315 11.1357 7.66252 11.2467 7.66252H11.5533L10.9642 8.92197C10.9189 9.01884 10.9252 9.13134 10.983 9.22197C11.0408 9.31259 11.1408 9.36728 11.247 9.36728H11.5528L10.9623 10.6641C10.9186 10.7609 10.9264 10.8734 10.9842 10.9625C11.042 11.0515 11.1404 11.1062 11.2467 11.1062H12.8859V12.711C12.8859 12.7157 12.886 12.7204 12.8862 12.725H9.94841C9.57341 12.725 9.26873 12.4203 9.26873 12.0453V7.35852L9.27029 7.32971L9.2656 6.54534H10.4C10.475 6.54534 10.55 6.51877 10.6093 6.46409C10.7375 6.34846 10.7468 6.15159 10.6312 6.02346L6.43277 1.3719L6.42184 1.36096C6.17652 1.11409 5.8484 0.978149 5.49996 0.978149C5.15152 0.978149 4.82496 1.11409 4.57809 1.36096L4.57475 1.36398C4.57215 1.36622 4.56928 1.3687 4.56715 1.3719L0.370273 6.02346C0.254648 6.15159 0.264023 6.34846 0.392148 6.46409C0.440978 6.50815 0.499794 6.53406 0.560293 6.54216L0.557788 6.54534H1.58748V7.20924C1.58643 7.21958 1.5859 7.23005 1.5859 7.24065V13.7172C1.5859 14.436 2.17184 15.0219 2.89059 15.0219ZM7.59685 9.6844H5.66248V7.79534H6.5031C7.10623 7.79534 7.59685 8.28596 7.59685 8.88909V9.6844ZM7.59685 10.3094H5.66248V12.1969H6.5031C7.10623 12.1969 7.59685 11.7063 7.59685 11.1031V10.3094ZM5.03748 12.1969V10.3094H3.19685V11.1031C3.19685 11.7063 3.68748 12.1969 4.2906 12.1969H5.03748ZM3.19685 9.6844H5.03748V7.79534H4.2906C3.68748 7.79534 3.19685 8.28596 3.19685 8.88909V9.6844Z" fill="#00C0FF"/>
</svg>
