<svg width="16" height="16" viewBox="0 0 16 16" fill="none" xmlns="http://www.w3.org/2000/svg">
<path d="M15.2499 9.46077L15.1916 8.97795C15.1848 8.88288 15.1407 8.79434 15.069 8.73152C14.9973 8.6687 14.9038 8.63666 14.8086 8.64232C14.6513 8.65067 14.4966 8.59899 14.3758 8.49772C14.255 8.39645 14.1772 8.25312 14.158 8.09669C14.1461 8.00067 14.1587 7.9032 14.1947 7.81337C14.2263 7.72126 14.2224 7.62062 14.1835 7.53129C14.1447 7.44196 14.0738 7.37042 13.9848 7.33074L13.7645 7.23168L13.5494 7.13718C13.4603 7.10009 13.3607 7.09726 13.2696 7.12922C13.1786 7.16119 13.1026 7.2257 13.0562 7.31034C13.0098 7.40164 12.9415 7.48006 12.8574 7.53862C12.7734 7.59718 12.6762 7.63407 12.5744 7.64601C12.4727 7.65795 12.3696 7.64457 12.2742 7.60706C12.1789 7.56955 12.0943 7.50907 12.028 7.43099C11.9642 7.35847 11.8757 7.31234 11.7797 7.30164C11.6838 7.29094 11.5873 7.31644 11.5091 7.37314L11.3098 7.5148L11.1261 7.65111C11.0487 7.70953 10.996 7.79488 10.9785 7.89027C10.961 7.98565 10.98 8.08414 11.0316 8.16623C11.0882 8.24486 11.1224 8.33736 11.1307 8.4339C11.1487 8.59102 11.1061 8.74911 11.0115 8.87585C10.9169 9.0026 10.7775 9.08844 10.6217 9.11584V9.12119C10.5254 9.1388 10.4396 9.19274 10.382 9.27184C10.3244 9.35094 10.2994 9.44915 10.3122 9.54616L10.3647 10.0131C10.3765 10.1095 10.424 10.198 10.4978 10.2611C10.5716 10.3242 10.6663 10.3574 10.7634 10.3541L10.7739 10.3593C10.9311 10.349 11.0862 10.4001 11.2066 10.5019C11.3269 10.6037 11.4031 10.7481 11.4191 10.9049C11.4311 11.0009 11.4184 11.0984 11.3825 11.1882C11.3508 11.2803 11.3548 11.381 11.3936 11.4703C11.4325 11.5596 11.5033 11.6312 11.5923 11.6708L12.0282 11.8599C12.1171 11.8978 12.2171 11.9011 12.3084 11.869C12.3996 11.837 12.4756 11.7719 12.5213 11.6867C12.5678 11.5954 12.6361 11.517 12.7201 11.4584C12.8042 11.3998 12.9014 11.363 13.0031 11.351C13.1049 11.3391 13.208 11.3525 13.3033 11.39C13.3987 11.4275 13.4832 11.488 13.5496 11.566C13.6128 11.6397 13.7015 11.6866 13.7979 11.6973C13.8944 11.708 13.9913 11.6817 14.0691 11.6237L14.4469 11.3404C14.5231 11.2825 14.575 11.1982 14.5925 11.1041C14.6099 11.01 14.5917 10.9128 14.5414 10.8314C14.5414 10.8314 14.5414 10.8262 14.5309 10.8262C14.5204 10.8211 14.5204 10.8104 14.515 10.8052L14.5045 10.8001C14.457 10.7139 14.4306 10.6176 14.4275 10.5192C14.4244 10.4207 14.4446 10.323 14.4866 10.2339C14.5286 10.1448 14.5911 10.067 14.669 10.0067C14.7468 9.9465 14.8379 9.90558 14.9347 9.88733L14.9398 9.87683C15.0356 9.8618 15.1217 9.80983 15.1797 9.73205C15.2377 9.65428 15.2629 9.55689 15.2499 9.46077ZM13.7126 9.72309C13.6868 9.83383 13.6405 9.93878 13.5761 10.0326C13.4518 10.2191 13.2662 10.3564 13.0515 10.4207C12.9963 10.436 12.9402 10.4482 12.8837 10.4573C12.8312 10.4625 12.7682 10.4625 12.7159 10.4625C12.4925 10.4493 12.2808 10.3581 12.1177 10.2049C12.0325 10.1281 11.963 10.0354 11.9131 9.93211C11.8621 9.83369 11.8286 9.72717 11.814 9.61729C11.8006 9.50704 11.8059 9.39532 11.8297 9.28682C11.8542 9.17567 11.9005 9.07048 11.966 8.97735C12.0913 8.78946 12.279 8.65197 12.4959 8.58923C12.551 8.57342 12.6071 8.56118 12.6638 8.55257C12.7268 8.54742 12.7793 8.54742 12.8369 8.54742C13.0616 8.56166 13.2745 8.65258 13.4402 8.80498C13.5226 8.88314 13.5901 8.97557 13.6395 9.0778C13.6911 9.17529 13.7215 9.28257 13.7287 9.39262C13.7498 9.50245 13.7445 9.61575 13.713 9.72309H13.7126Z" fill="#00C0FF"/>
<path d="M10.9202 11.9721C10.9707 11.8459 10.9884 11.7089 10.9717 11.5739C10.9492 11.3536 10.8421 11.1505 10.673 11.0075C10.5038 10.8645 10.2858 10.7927 10.0647 10.8072L10.0501 10.7999C9.91365 10.8045 9.78047 10.7578 9.67676 10.6691C9.57304 10.5804 9.50633 10.4561 9.48976 10.3206L9.41606 9.6646C9.39813 9.52814 9.4334 9.39001 9.51455 9.27884C9.59569 9.16767 9.7165 9.09198 9.85193 9.06746V9.06013C10.0709 9.02168 10.2669 8.90103 10.3998 8.72285C10.5328 8.54468 10.5926 8.32245 10.5672 8.1016C10.5553 7.96577 10.5069 7.83568 10.4271 7.72517C10.3549 7.60993 10.3285 7.47184 10.3531 7.3381C10.3777 7.20436 10.4514 7.08467 10.5598 7.00261L10.8174 6.81083L11.0975 6.6127C11.2074 6.53284 11.3432 6.49691 11.4782 6.51193C11.6132 6.52696 11.7378 6.59187 11.8274 6.69393C11.9207 6.80363 12.0395 6.88861 12.1735 6.94131C12.3075 6.99402 12.4524 7.01281 12.5954 6.99603C12.7384 6.97925 12.875 6.92741 12.9931 6.84513C13.1113 6.76284 13.2072 6.65264 13.2725 6.52434C13.2877 6.49818 13.3049 6.47321 13.3239 6.44965C13.0053 5.78138 12.5529 5.18561 11.9948 4.6992C11.4367 4.2128 10.7847 3.84611 10.0792 3.62182C9.73147 3.51127 9.00614 5.09448 9.00614 5.09448V3.07361C9.01503 2.90719 8.95882 2.74383 8.8494 2.61811C8.73999 2.49239 8.58595 2.41416 8.41989 2.39999H7.54082C7.37475 2.41416 7.22072 2.49239 7.11131 2.61811C7.00189 2.74383 6.94568 2.90719 6.95457 3.07361V5.09448C6.95457 5.09448 6.22428 3.51127 5.87658 3.62678C4.79154 3.98096 3.84659 4.66974 3.17731 5.5943C2.50803 6.51886 2.14883 7.63167 2.15125 8.77304C2.15125 9.37613 0.800049 8.52163 0.800049 11.1553C0.800049 11.1553 1.42592 12.3062 8.13202 12.3062C9.06127 12.31 9.98866 12.223 10.901 12.0464C10.9056 12.0212 10.912 11.9964 10.9202 11.9721Z" fill="#00C0FF"/>
</svg>
