<svg width="751" height="745" viewBox="0 0 751 745" fill="none" xmlns="http://www.w3.org/2000/svg">
<path fill-rule="evenodd" clip-rule="evenodd" d="M137.113 110.31L131.832 112.07L131.067 113.601L128.165 114.637L126.551 113.83L110.709 120.871L108.948 108.55L101.907 94.4694L98.3865 97.9896L96.6264 101.509L100.147 108.55L93.1056 112.07L91.3452 117.351L89.5851 133.191L91.3452 136.711L94.8659 136.711L93.1056 145.512L96.6261 147.272V156.072L101.907 163.113L103.667 171.913L108.948 175.433L110.709 171.913H114.229V161.353L117.75 164.873L123.031 163.113L130.072 170.153L131.832 168.393L135.353 173.673L133.592 182.474L138.873 191.274L137.113 214.155L140.633 215.915V219.436L137.113 221.196L140.633 231.756L137.113 235.276L140.633 238.797L138.873 247.597L142.394 254.637L138.873 275.758L133.592 282.799V289.839H137.113L138.873 295.119L131.832 302.16V298.639L124.791 300.4L128.311 312.72L133.006 317.414L135.353 323.281L130.072 328.561L121.27 325.041L114.136 338.288L112.469 339.121V341.384L109.614 346.685L103.668 351.442L94.8659 344.402V349.682L89.5851 354.962L91.3454 363.763L86.0646 369.043L86.064 369.043L71.9824 381.363L68.4616 376.083L57.8999 391.924V407.765L63.1808 413.045H54.3793L50.8587 418.325L42.0573 421.846V448.247H52.619L56.1396 455.287L52.619 462.328L61.4205 464.088L57.8999 467.608V478.168L42.0573 492.249L50.8587 501.049L84.3042 479.928L115.989 476.408L123.031 476.408L126.551 479.928L141.807 476.408H147.675L148.742 474.808L149.435 474.648L151.195 478.168L137.113 490.489H133.592V504.57L142.394 506.33L149.435 522.17L144.154 527.451L145.914 534.491L149.435 532.731L152.955 538.011V543.292L149.435 546.812L154.716 548.572L151.195 559.132L163.517 560.892L167.038 567.933H179.36L184.641 566.173V562.652L200.483 567.933L201.123 570.493L200.483 574.973L204.004 582.013L202.243 583.774L195.202 580.253L193.442 582.013L196.963 589.054H193.442L189.921 596.094H184.641L189.921 617.215L179.36 627.776L181.12 629.536L177.599 640.096L172.319 647.137L177.599 652.417L188.161 654.177L196.963 650.657L205.764 654.177L211.045 652.417L214.565 657.697L237.449 657.697V685.859L253.292 691.139L248.011 696.419L253.292 706.98V703.459L262.093 706.98L267.374 701.699H272.655L277.936 708.74H284.977L288.889 707.175L290.258 706.98L291.378 706.18L293.778 705.219L296.419 702.579L302.58 698.179L309.621 689.379L320.183 687.619L327.224 680.578L332.505 692.899L330.744 699.939H334.265L337.786 705.219L330.744 712.26L334.265 719.3L339.546 722.82L337.786 726.341L343.066 731.621L362.43 726.341L367.71 728.101V733.381L371.231 731.621L380.032 735.141L383.553 729.861H387.074V726.341L378.272 719.3V706.98L381.793 703.459L380.032 698.179H383.553L385.313 694.659L380.032 684.099L381.793 677.058L378.272 675.298L374.752 666.498L367.71 664.738V647.137L364.19 638.336L371.231 634.816L372.991 620.735L380.032 617.215L388.834 627.776H392.354V624.255L402.916 622.495L409.957 624.256L411.718 627.776L413.478 624.255L420.519 626.016L425.8 613.695L432.841 606.655L431.081 603.134L439.882 594.334L445.163 599.614L448.684 597.854L468.047 608.415L471.567 615.455L482.129 624.255L494.451 613.695L492.691 608.415L503.253 603.135L505.013 590.814L515.575 596.094L513.814 601.374L520.855 610.175L526.136 603.135V597.854L531.417 592.574L545.499 608.415L554.301 615.455L561.342 617.215L563.102 597.854L568.383 590.814L570.143 592.574L580.705 589.054L582.466 597.854L589.507 601.374L605.349 589.054L619.432 590.814L621.192 583.774L628.233 582.013L624.712 567.933L633.514 559.132L635.274 560.892L647.596 552.092H659.918L665.199 541.531L674 550.332L675.761 548.572L682.802 559.132V553.852L688.083 546.812H696.884L691.603 539.771H696.884L707.446 529.211L719.768 532.731V536.251L730.33 525.691V504.57L735.61 502.81V497.529H732.09L726.809 486.969L728.569 485.209L719.768 476.408H714.487L712.727 481.689H709.206L707.446 485.209H703.925V481.689H696.884L691.603 485.209L688.083 474.648L681.042 478.168V485.209L672.24 483.449L665.199 476.408L661.678 479.928L663.439 481.689H658.158L654.637 472.888H658.158L659.918 469.368H656.398L652.877 462.328L656.398 458.807L644.076 448.247L633.514 451.767L621.192 446.487L615.911 450.007V458.807L608.87 453.527V450.007H605.349L605.349 446.487L598.308 430.646L607.109 409.525L617.671 398.964L615.911 395.444L608.87 393.684H614.151L619.432 384.884L617.671 381.364L624.712 384.884L626.473 377.843L612.39 374.323V367.283L605.349 363.763V353.202L594.788 358.482V349.682L584.226 342.642L585.986 333.841H589.507L594.788 326.801L593.027 319.76L598.308 309.2L596.548 303.92L601.829 302.16L603.589 288.079L614.151 277.518L607.109 259.918L596.548 258.157L593.027 247.597L584.226 256.397L571.904 252.877L564.863 259.918V265.198H549.02L540.219 258.157L541.979 245.837L536.698 242.317L537.872 237.623L541.979 233.516L541.979 226.476L538.458 219.436L537.285 218.653L536.698 217.675L533.177 215.915L529.657 210.635H534.938L540.219 201.835L547.26 194.794L549.02 196.554L554.301 180.714L559.582 184.234L561.342 182.474V185.994L573.664 198.314L575.424 194.794H580.705L578.945 191.274L584.226 187.754L587.746 178.954L600.068 184.234L607.109 193.034H614.151L619.432 189.514L621.192 193.034L624.712 189.514L629.993 194.794L645.836 184.234L654.637 185.994L659.918 178.954V176.753L661.678 173.673L659.918 168.393L665.199 166.633L661.678 149.032L665.199 147.272H661.678L658.158 140.232L663.439 134.951L659.918 129.671L656.398 131.431L652.877 124.391L645.836 122.631L640.555 124.391L638.795 129.671L631.754 134.951V137.885L630.213 138.912L625.593 140.232H619.432L607.109 145.512L601.829 140.232L600.773 141.288L596.548 138.472L584.226 126.151L594.788 120.871V115.59L591.267 112.07H594.788L596.548 108.55L591.267 105.03V101.51H582.466L578.945 83.9089L585.986 82.1488L594.788 73.3483L589.507 71.5882L584.226 75.1084L573.664 71.5882L568.383 75.1084L564.863 73.3483L556.061 76.8685L552.541 73.3483L550.78 75.1084L547.26 69.8282V78.6286L541.979 83.9089L545.499 85.6689L549.02 101.51L536.698 112.07L531.417 106.79L517.335 119.111L513.814 124.391L519.095 133.191L524.376 134.951L519.095 141.992V149.032L512.054 157.833H508.533L501.492 164.873L503.253 170.153H497.972L489.17 185.994L483.889 184.234L478.609 187.754L475.088 184.234L469.807 194.794L473.328 208.875L469.807 215.915L470.127 218.475L469.807 219.436L471.567 229.996L482.129 251.117L482.129 261.678H483.449L483.889 265.198L478.609 266.958L480.369 277.518L476.848 281.039H471.567L469.807 277.518V281.039L457.485 288.079V291.599L448.684 288.079L450.444 282.799L445.163 277.518L418.759 291.599L406.437 305.68L401.156 302.16L395.875 303.92L394.115 300.4L387.074 307.44L383.553 296.879L378.272 291.599L365.95 286.319L369.471 282.799H371.231V281.038L372.991 279.278L371.231 277.518V275.758L360.669 266.958L357.149 266.958L355.388 265.198V263.438L351.868 261.678L351.868 258.157L358.909 251.117L355.388 249.357L360.669 242.317L357.149 240.557L355.388 245.837L350.108 245.837L348.347 242.317L351.868 235.276L339.546 228.236L341.306 224.716L330.744 219.436L332.505 205.355L328.984 201.835H323.703L320.183 193.034L321.943 189.514L318.422 189.514L314.902 178.954L311.381 180.714L313.142 173.673L306.1 164.873V159.592H302.58L295.539 149.032V140.232L290.258 138.472L283.217 149.032L279.696 147.272V143.752H274.415L270.895 150.792L265.614 156.072L263.854 154.312V141.992L260.333 143.752L253.292 138.472L255.052 136.711L246.251 127.911L240.97 117.351L242.73 113.83L251.531 112.07L255.052 108.55L251.531 105.03L253.292 103.27L244.49 97.9896L246.251 92.7093L239.209 89.1891V83.9089L216.326 62.7878V53.9874L209.285 57.5076V62.7878L204.004 66.308L202.243 73.3483L191.682 82.1488V90.9492L195.202 94.4694L191.682 101.51L193.442 106.79L189.921 112.07L191.682 117.351L172.319 92.7093L174.079 76.8685L170.558 73.3483V64.5479L167.038 57.5076L170.558 45.1869L167.038 24.0659L168.798 18.7856L156.476 22.3058L159.997 32.8663L152.955 46.947L156.476 55.7475L147.675 57.5076L140.633 39.9067L135.353 43.4269L131.832 41.6668L130.072 45.1869L130.613 46.5411L130.072 48.7071L133.592 53.9869L133.592 64.5479L126.551 68.0681L130.072 78.6286L128.311 83.9089L130.072 87.429H133.592L138.873 97.9896L135.353 105.03L137.113 110.31ZM527.897 215.915H533.177L529.521 220.79L527.897 215.915Z" fill="#030E2B" fill-opacity="0.3"/>
</svg>