<svg width="32" height="32" viewBox="0 0 32 32" fill="none" xmlns="http://www.w3.org/2000/svg">
<path d="M0 2C0 0.895431 0.895431 0 2 0H30C31.1046 0 32 0.895431 32 2V30C32 31.1046 31.1046 32 30 32H2C0.895431 32 0 31.1046 0 30V2Z" fill="#00C0FF" fill-opacity="0.2"/>
<circle cx="16" cy="16" r="11" stroke="#00C0FF" stroke-opacity="0.65" stroke-width="2"/>
<path d="M20.5 15.134C21.1667 15.5189 21.1667 16.4811 20.5 16.866L14.5 20.3301C13.8333 20.715 13 20.2339 13 19.4641V12.5359C13 11.7661 13.8333 11.285 14.5 11.6699L20.5 15.134Z" fill="#00C0FF" fill-opacity="0.65"/>
</svg>
