<svg width="16" height="16" viewBox="0 0 16 16" fill="none" xmlns="http://www.w3.org/2000/svg">
<path d="M12.1879 0.47052H13.3583V4.12807L12.1879 3.02252V0.47052ZM14.5243 14.0935C13.9121 14.3272 10.1542 15.9999 9.56374 15.9999C9.55325 15.9999 9.54276 15.9992 9.53377 15.9977C9.07368 15.9319 5.44544 14.8404 4.90668 14.8404C4.89394 14.8404 4.88195 14.8404 4.87296 14.8426C4.47956 14.9003 3.64931 15.31 2.79358 15.6354C2.75321 15.6509 2.71027 15.6589 2.66694 15.659C1.85018 15.659 1.02967 12.7883 1.60365 12.5058C1.68308 12.4674 1.76251 12.4296 1.84268 12.3942C2.36422 12.1575 2.89324 11.9357 3.42301 11.7183C3.61709 11.6376 3.81116 11.5578 4.00599 11.4787C4.50578 11.2725 5.011 11.0794 5.52113 10.8996C5.84334 10.7857 6.16555 10.6637 6.50349 10.6105L6.52747 10.6075H6.52972L6.5492 10.6046H6.55595C6.56091 10.6038 6.56592 10.6034 6.57093 10.6031L6.57618 10.6268C6.58217 10.6268 6.58892 10.6504 6.59416 10.6504H6.60465C7.25432 10.6504 10.5176 11.7012 11.3052 11.9172C12.0283 12.1161 11.6903 13.0863 10.926 13.0863C10.8556 13.0863 10.7814 13.0715 10.7042 13.0538C9.78929 12.8393 8.35658 12.5435 7.7219 12.4075C7.67619 12.3969 7.62947 12.3912 7.58252 12.3905C7.03926 12.3905 6.78074 13.1174 7.34124 13.3614C7.74962 13.5389 9.85373 14.1209 10.5529 14.1209C10.8136 14.1209 11.0864 13.9752 11.3277 13.8872C11.6311 13.7763 11.9339 13.6609 12.2343 13.5426C12.8383 13.3074 13.4385 13.0627 14.0447 12.8327C14.1796 12.7809 14.3032 12.758 14.4141 12.758C15.1597 12.758 15.338 13.7837 14.5243 14.0935Z" fill="white"/>
<path d="M15.0587 7.51866L12.9306 5.81495V11.0615C12.7375 11.1351 12.5019 11.2131 12.2931 11.294C12.2845 11.0246 12.2001 10.7628 12.0494 10.5382C11.8555 10.2387 11.5486 10.0268 11.1793 9.92519C10.9861 9.87147 10.599 9.75372 10.1561 9.61757C9.51863 9.42107 8.72209 9.176 8.02587 8.97951C6.86302 8.65201 6.49076 8.60638 6.26191 8.60638H6.23219C6.04346 8.61006 5.76259 8.65054 4.99503 8.91769C4.57151 9.06488 4.0068 9.26579 3.38637 9.51454C3.16346 9.60359 3.06835 9.69558 2.68123 9.78683V6.12772L0.94104 7.51866V5.95919L7.67962 0.47052L15.0579 5.95919L15.0587 7.51866ZM5.07677 4.60579V6.81362H7.30587V4.60579H5.07677ZM8.79194 4.60579V6.81362H11.021V4.60579H8.79194Z" fill="white"/>
</svg>
