<svg width="32" height="32" viewBox="0 0 32 32" fill="none" xmlns="http://www.w3.org/2000/svg">
<path d="M0 4C0 1.79086 1.79086 0 4 0H28C30.2091 0 32 1.79086 32 4V28C32 30.2091 30.2091 32 28 32H4C1.79086 32 0 30.2091 0 28V4Z" fill="#00C0FF" fill-opacity="0.2"/>
<path d="M19.84 15.9999C19.84 16.7213 19.5534 17.4131 19.0433 17.9232C18.5332 18.4333 17.8414 18.7199 17.12 18.7199C16.3986 18.7199 15.7067 18.4333 15.1966 17.9232C14.6865 17.4131 14.4 16.7213 14.4 15.9999C14.4 15.2785 14.6865 14.5866 15.1966 14.0765C15.7067 13.5664 16.3986 13.2799 17.12 13.2799C17.8414 13.2799 18.5332 13.5664 19.0433 14.0765C19.5534 14.5866 19.84 15.2785 19.84 15.9999ZM17.12 28.3199C15.1158 28.3211 13.1417 27.8327 11.3693 26.8971C9.59683 25.9616 8.07976 24.6073 6.94997 22.9519L8.89897 21.9339C9.83573 23.2648 11.079 24.3509 12.5237 25.1004C13.9685 25.8498 15.5724 26.2406 17.2 26.2399C22.811 26.2399 27.36 21.6909 27.36 16.0799C27.36 10.4689 22.811 5.91987 17.2 5.91987C12.218 5.91987 8.07597 9.50687 7.20997 14.2389H9.59897L5.99797 20.1599L2.39697 14.2389H4.92697C5.78197 8.26887 10.914 3.67987 17.12 3.67987C23.924 3.67987 29.44 9.19587 29.44 15.9999C29.44 22.8039 23.924 28.3199 17.12 28.3199Z" fill="#00C0FF"/>
<path d="M4 1H28V-1H4V1ZM31 4V28H33V4H31ZM28 31H4V33H28V31ZM1 28V4H-1V28H1ZM4 31C2.34315 31 1 29.6569 1 28H-1C-1 30.7614 1.23858 33 4 33V31ZM31 28C31 29.6569 29.6569 31 28 31V33C30.7614 33 33 30.7614 33 28H31ZM28 1C29.6569 1 31 2.34315 31 4H33C33 1.23858 30.7614 -1 28 -1V1ZM4 -1C1.23858 -1 -1 1.23858 -1 4H1C1 2.34315 2.34315 1 4 1V-1Z" fill="#00C0FF" fill-opacity="0.85"/>
</svg>
